#!OML:ASF F:\VICON\USERDATA\INSTALL\rory3\rory3.ASF
:FULLY-SPECIFIED
:DEGREES
995
root 3.06635 16.4702 0.602244 10.4226 6.02348 6.01421
lowerback -5.46334 1.73895 -0.342257
upperback 0.860889 2.44716 -2.54775
thorax 4.05219 1.23995 -2.2233
lowerneck 1.01889 8.8763 3.19281
upperneck 57.2329 13.1948 5.50688
head 25.4241 6.39948 5.11145
rclavicle 1.8487e-014 8.74653e-015
rhumerus -43.7466 3.90698 -88.1673
rradius 58.848
rwrist -48.4492
rhand -7.15482 -47.095
rfingers 7.12502
rthumb 18.7219 -76.2141
lclavicle 1.8487e-014 8.74653e-015
lhumerus -21.7124 -3.98075 86.3588
lradius 36.48
lwrist 69.707
lhand -37.5091 -13.5503
lfingers 7.12502
lthumb -10.5658 16.1642
rfemur -51.7149 15.7532 5.19254
rtibia 76.2528
rfoot 6.59212 14.7887
rtoes -32.6832
lfemur -29.3691 -7.91712 -31.5941
ltibia 46.6658
lfoot -23.0931 14.6965
ltoes 6.44765
996
root 3.06507 16.47 0.605484 10.4399 5.98247 6.04973
lowerback -6.47339 2.24776 -3.32133
upperback -0.335342 3.30377 -1.82775
thorax 3.20175 1.6085 0.273707
lowerneck 4.42742 7.04473 7.1483
upperneck 57.3161 10.7568 3.26923
head 25.3936 6.303 2.50089
rclavicle -3.17062e-014 -3.57812e-015
rhumerus -47.2337 2.41062 -87.2344
rradius 59.3462
rwrist -48.5371
rhand -7.35244 -45.8175
rfingers 7.12502
rthumb 18.5318 -74.9548
lclavicle -3.17062e-014 -3.57812e-015
lhumerus -24.7326 -5.79226 87.7041
lradius 36.7397
lwrist 69.6809
lhand -37.8254 -13.4257
lfingers 7.12502
lthumb -10.8709 16.2729
rfemur -51.7323 15.7543 5.17999
rtibia 76.2587
rfoot 6.46718 14.7859
rtoes -32.818
lfemur -29.3803 -7.87986 -31.6349
ltibia 46.6938
lfoot -23.0618 14.7177
ltoes 6.34779
997
root 3.06144 16.4702 0.608634 10.4878 5.93798 6.04981
lowerback -5.70493 1.95492 -0.287366
upperback 0.80986 2.74284 -2.72879
thorax 4.159 1.39061 -2.40769
lowerneck 1.24863 8.67801 3.81479
upperneck 57.0873 12.9076 5.19137
head 25.3594 6.41534 4.73989
rclavicle 1.76421e-014 -2.10712e-014
rhumerus -44.0114 3.23134 -88.1744
rradius 58.9013
rwrist -48.5781
rhand -7.29841 -47.1711
rfingers 7.12502
rthumb 18.5838 -76.3034
lclavicle 1.76421e-014 -2.10712e-014
lhumerus -21.6958 -4.82703 86.3709
lradius 36.4437
lwrist 69.7645
lhand -37.8612 -13.1447
lfingers 7.12502
lthumb -10.9054 16.5521
rfemur -51.7931 15.8284 5.16809
rtibia 76.2708
rfoot 6.43391 14.8122
rtoes -33.1879
lfemur -29.4476 -7.84269 -31.6178
ltibia 46.7315
lfoot -23.055 14.7265
ltoes 6.22128
998
root 3.06007 16.4682 0.609721 10.4818 5.89564 5.95495
lowerback -5.71497 1.95653 -0.229759
upperback 0.79742 2.73868 -2.68183
thorax 4.15185 1.38914 -2.39155
lowerneck 1.21382 8.68555 3.68876
upperneck 57.1606 12.8852 5.32544
head 25.4113 6.38611 4.85011
rclavicle -2.81032e-014 6.95746e-015
rhumerus -44.1219 3.26443 -88.156
rradius 59.0555
rwrist -48.5744
rhand -7.54206 -47.4275
rfingers 7.12502
rthumb 18.3494 -76.582
lclavicle -2.81032e-014 6.95746e-015
lhumerus -21.6422 -4.68329 86.3586
lradius 36.2927
lwrist 69.6472
lhand -37.5559 -12.7752
lfingers 7.12502
lthumb -10.6109 16.9369
rfemur -51.81 15.8786 5.27116
rtibia 76.2714
rfoot 6.41278 14.8371
rtoes -33.6601
lfemur -29.5037 -7.7977 -31.5108
ltibia 46.7767
lfoot -23.1018 14.7215
ltoes 6.24861
999
root 3.06036 16.4666 0.610098 10.4849 5.87825 5.94706
lowerback -5.7167 1.91963 -0.243112
upperback 0.796405 2.68823 -2.63385
thorax 4.14654 1.36303 -2.33902
lowerneck 1.20124 8.71598 3.62141
upperneck 57.2415 12.9673 5.31409
head 25.5091 6.39333 4.88731
rclavicle -4.66647e-014 -1.45113e-014
rhumerus -44.1436 3.39678 -88.1204
rradius 59.118
rwrist -48.5151
rhand -7.863 -47.2791
rfingers 7.12502
rthumb 18.0407 -76.4624
lclavicle -4.66647e-014 -1.45113e-014
lhumerus -21.5674 -4.50196 86.3741
lradius 36.1695
lwrist 69.6466
lhand -37.742 -12.2951
lfingers 7.12502
lthumb -10.7904 17.4077
rfemur -51.8172 15.8496 5.28376
rtibia 76.2726
rfoot 6.32487 14.8736
rtoes -33.8756
lfemur -29.5577 -7.79245 -31.5008
ltibia 46.82
lfoot -23.121 14.7284
ltoes 6.33182
1000
root 3.05979 16.4654 0.610544 10.5484 5.86753 5.9933
lowerback -5.80731 1.90531 -0.298215
upperback 0.80551 2.67413 -2.61536
thorax 4.20308 1.35452 -2.28723
lowerneck 1.20214 8.73962 3.63416
upperneck 57.2299 13.0667 5.19308
head 25.5233 6.42266 4.83186
rclavicle 5.479e-014 -4.67144e-014
rhumerus -44.0979 3.42183 -88.0401
rradius 59.1638
rwrist -48.4276
rhand -7.95486 -46.4262
rfingers 7.12502
rthumb 17.9523 -75.6177
lclavicle 5.479e-014 -4.67144e-014
lhumerus -21.4587 -4.46009 86.4274
lradius 36.0743
lwrist 69.6241
lhand -39.1697 -11.9203
lfingers 7.12502
lthumb -12.1672 17.7058
rfemur -51.8898 15.8136 5.21373
rtibia 76.2823
rfoot 6.28183 14.9038
rtoes -33.9593
lfemur -29.6424 -7.81876 -31.5405
ltibia 46.8573
lfoot -23.0995 14.7489
ltoes 6.32122
1001
root 3.06141 16.4639 0.611184 10.5493 5.84865 5.9476
lowerback -6.67469 2.3566 -3.09743
upperback -0.362017 3.44156 -1.8484
thorax 3.29753 1.67916 0.148754
lowerneck 4.39883 7.02516 7.13644
upperneck 57.3373 10.751 3.25384
head 25.4348 6.29832 2.50059
rclavicle -3.67752e-014 7.15625e-015
rhumerus -47.4668 2.07091 -87.0282
rradius 59.7982
rwrist -48.3299
rhand -8.37656 -44.8909
rfingers 7.12502
rthumb 17.5465 -74.1191
lclavicle -3.67752e-014 7.15625e-015
lhumerus -24.4306 -5.95318 87.7666
lradius 36.3637
lwrist 69.5614
lhand -40.8384 -11.6462
lfingers 7.12502
lthumb -13.7759 17.8777
rfemur -51.9002 15.8209 5.25575
rtibia 76.2856
rfoot 6.25301 14.9259
rtoes -34.0472
lfemur -29.6486 -7.84341 -31.4983
ltibia 46.8708
lfoot -23.1078 14.773
ltoes 6.37436
1002
root 3.06418 16.4644 0.612849 10.4799 5.78438 5.87465
lowerback -5.6349 2.05693 -0.0177341
upperback 0.70072 2.85318 -2.66165
thorax 4.02052 1.44992 -2.48306
lowerneck 1.31549 8.66568 3.62092
upperneck 57.1733 12.8787 5.3324
head 25.3658 6.38073 4.85464
rclavicle 1.31695e-014 1.63003e-014
rhumerus -44.3136 2.98665 -87.8659
rradius 59.3494
rwrist -48.244
rhand -8.04247 -46.2678
rfingers 7.12502
rthumb 17.868 -75.4669
lclavicle 1.31695e-014 1.63003e-014
lhumerus -21.6719 -4.73952 86.5014
lradius 36.166
lwrist 69.6389
lhand -40.5183 -11.8879
lfingers 7.12502
lthumb -13.4673 17.6567
rfemur -51.8362 15.893 5.34082
rtibia 76.2815
rfoot 6.23733 14.9338
rtoes -33.7491
lfemur -29.5704 -7.81629 -31.4425
ltibia 46.8478
lfoot -23.1738 14.7876
ltoes 6.5672
1003
root 3.06421 16.4671 0.614221 10.4392 5.73721 5.8564
lowerback -5.59187 1.97331 -0.0662831
upperback 0.697419 2.73976 -2.55994
thorax 3.98003 1.39089 -2.36239
lowerneck 1.31843 8.74025 3.42013
upperneck 57.2486 13.0521 5.31672
head 25.4162 6.39544 4.91892
rclavicle -6.21948e-014 2.70347e-014
rhumerus -44.2882 3.28739 -87.8291
rradius 59.3647
rwrist -48.2602
rhand -8.07057 -49.4521
rfingers 7.12502
rthumb 17.8409 -78.6538
lclavicle -6.21948e-014 2.70347e-014
lhumerus -21.7025 -4.34959 86.523
lradius 36.0968
lwrist 69.5058
lhand -39.7782 -12.2909
lfingers 7.12502
lthumb -12.754 17.2995
rfemur -51.8371 15.963 5.35051
rtibia 76.2926
rfoot 6.39094 14.7984
rtoes -33.1605
lfemur -29.5002 -7.75174 -31.4372
ltibia 46.7867
lfoot -23.103 14.8498
ltoes 6.29146
1004
root 3.06326 16.47 0.617813 10.4145 5.71521 5.96587
lowerback -5.66972 2.10771 -0.0968322
upperback 0.777029 2.93035 -2.69158
thorax 4.12061 1.48758 -2.45995
lowerneck 1.22403 8.60159 3.62765
upperneck 57.2401 12.7856 5.33881
head 25.5015 6.33749 4.87141
rclavicle 7.98866e-014 -2.78299e-014
rhumerus -44.2161 2.74043 -87.7616
rradius 59.3872
rwrist -48.197
rhand -7.70641 -46.6589
rfingers 7.12502
rthumb 18.1913 -75.8282
lclavicle 7.98866e-014 -2.78299e-014
lhumerus -21.5561 -4.97406 86.5663
lradius 36.0497
lwrist 69.479
lhand -39.7913 -12.5993
lfingers 7.12502
lthumb -12.7666 16.9904
rfemur -51.8226 15.9769 5.2295
rtibia 76.3164
rfoot 6.47035 14.7055
rtoes -33.3049
lfemur -29.3673 -7.71088 -31.5684
ltibia 46.6747
lfoot -22.9921 14.8916
ltoes 5.87289
1005
root 3.064 16.4709 0.621943 10.3992 5.66535 6.16727
lowerback -5.71478 2.22834 -0.180628
upperback 0.787449 3.10563 -2.85332
thorax 4.16975 1.57525 -2.56225
lowerneck 1.30237 8.47778 3.81023
upperneck 57.1552 12.5267 5.36335
head 25.3985 6.29457 4.7883
rclavicle -6.23687e-015 9.14409e-015
rhumerus -44.2505 2.28358 -87.7315
rradius 59.3584
rwrist -48.1371
rhand -7.63769 -45.6766
rfingers 7.12502
rthumb 18.2574 -74.8398
lclavicle -6.23687e-015 9.14409e-015
lhumerus -21.522 -5.56363 86.6072
lradius 35.9935
lwrist 69.4917
lhand -40.9791 -12.3245
lfingers 7.12502
lthumb -13.9115 17.1902
rfemur -51.7879 15.9465 5.01424
rtibia 76.3485
rfoot 6.44223 14.7967
rtoes -33.3624
lfemur -29.2223 -7.7087 -31.8043
ltibia 46.5578
lfoot -22.9814 14.8944
ltoes 5.89692
1006
root 3.06396 16.4762 0.621195 10.3836 5.64138 6.2623
lowerback -6.54049 2.63112 -3.05234
upperback -0.280897 3.81201 -2.14749
thorax 3.32168 1.86569 -0.155194
lowerneck 4.40636 6.81585 7.1095
upperneck 57.1967 10.2617 3.53959
head 25.1644 6.14338 2.56391
rclavicle -2.28602e-015 3.67752e-014
rhumerus -47.3846 1.05937 -86.8205
rradius 59.8329
rwrist -48.1011
rhand -6.89573 -47.3901
rfingers 7.12502
rthumb 18.9711 -76.485
lclavicle -2.28602e-015 3.67752e-014
lhumerus -24.2731 -7.0247 87.914
lradius 36.2419
lwrist 69.4056
lhand -42.8849 -11.5031
lfingers 7.12502
lthumb -15.7475 17.8762
rfemur -51.9166 15.9625 4.87479
rtibia 76.3961
rfoot 6.96142 14.9678
rtoes -32.7495
lfemur -29.1543 -7.71131 -31.9109
ltibia 46.4789
lfoot -22.9356 14.9467
ltoes 5.91024
1007
root 3.0625 16.479 0.619118 10.363 5.65621 6.23133
lowerback -6.48785 2.65167 -2.95645
upperback -0.304469 3.83031 -2.18127
thorax 3.27604 1.87743 -0.244883
lowerneck 4.46729 6.79517 7.11345
upperneck 57.1757 10.1974 3.60123
head 25.0975 6.12799 2.57842
rclavicle -5.73742e-014 1.61016e-014
rhumerus -47.4063 0.937652 -86.8525
rradius 59.7781
rwrist -48.0412
rhand -7.16869 -48.5191
rfingers 7.12502
rthumb 18.7086 -77.6394
lclavicle -5.73742e-014 1.61016e-014
lhumerus -24.3158 -7.17846 87.9223
lradius 36.3282
lwrist 69.4817
lhand -43.6436 -11.2144
lfingers 7.12502
lthumb -16.4781 18.1058
rfemur -52.0111 16.0093 4.87255
rtibia 76.4268
rfoot 7.37947 15.1664
rtoes -32.6173
lfemur -29.1362 -7.73729 -31.8632
ltibia 46.4665
lfoot -22.9554 14.9187
ltoes 6.15041
1008
root 3.05992 16.4689 0.618706 10.3593 5.64139 6.22595
lowerback -5.5976 2.29359 -0.120941
upperback 0.785985 3.19208 -2.98069
thorax 4.11712 1.62154 -2.72423
lowerneck 1.32078 8.39931 3.86049
upperneck 57.0679 12.288 5.51747
head 25.26 6.23833 4.8054
rclavicle 2.81777e-014 -4.57205e-015
rhumerus -44.1532 1.91401 -87.815
rradius 59.1972
rwrist -48.0222
rhand -6.84572 -47.3273
rfingers 7.12502
rthumb 19.0192 -76.4174
lclavicle 2.81777e-014 -4.57205e-015
lhumerus -21.4348 -6.04304 86.6066
lradius 36.0957
lwrist 69.6282
lhand -43.7274 -11.2437
lfingers 7.12502
lthumb -16.5587 18.0698
rfemur -51.8837 16.0304 4.87991
rtibia 76.4397
rfoot 6.93439 15.0292
rtoes -32.3158
lfemur -29.1732 -7.75407 -31.8412
ltibia 46.5211
lfoot -23.0247 14.8206
ltoes 6.51179
1009
root 3.05591 16.4605 0.620227 10.3558 5.5987 6.30096
lowerback -5.66809 2.16206 -0.319111
upperback 0.87701 3.03028 -2.89258
thorax 4.22799 1.53568 -2.5327
lowerneck 1.13776 8.52765 3.61023
upperneck 57.1594 12.5387 5.53617
head 25.3931 6.26146 4.93545
rclavicle -9.36773e-015 -9.54166e-015
rhumerus -43.9339 2.33428 -87.844
rradius 59.1729
rwrist -48.0873
rhand -6.97977 -46.9333
rfingers 7.12502
rthumb 18.8903 -76.036
lclavicle -9.36773e-015 -9.54166e-015
lhumerus -21.3844 -5.60457 86.5712
lradius 36.0917
lwrist 69.3792
lhand -43.1943 -11.3574
lfingers 7.12502
lthumb -16.0455 17.9982
rfemur -51.7889 16.064 4.81506
rtibia 76.4612
rfoot 6.62528 14.7766
rtoes -31.9557
lfemur -29.2078 -7.69759 -31.9162
ltibia 46.5853
lfoot -23.015 14.8218
ltoes 6.32243
